<?xml version="1.0" standalone="no"?>
<!DOCTYPE svg PUBLIC "-//W3C//DTD SVG 20010904//EN"
 "http://www.w3.org/TR/2001/REC-SVG-20010904/DTD/svg10.dtd">
<svg version="1.0" xmlns="http://www.w3.org/2000/svg"
 width="700.000000pt" height="700.000000pt" viewBox="0 0 700.000000 700.000000"
 preserveAspectRatio="xMidYMid meet">
<metadata>
Created by potrace 1.14, written by Peter Selinger 2001-2017
</metadata>
<g transform="translate(0.000000,700.000000) scale(0.100000,-0.100000)"
fill="#000000" stroke="none">
<path d="M3347 5904 c-1 -1 -33 -5 -72 -9 -153 -14 -281 -38 -415 -76 -117
-33 -261 -83 -302 -105 -14 -8 -33 -14 -41 -14 -9 0 -17 -3 -19 -7 -1 -5 -52
-33 -113 -63 -142 -71 -327 -195 -459 -310 -67 -57 -235 -230 -292 -300 -70
-86 -194 -267 -220 -322 -10 -21 -21 -38 -26 -38 -4 0 -8 -4 -8 -10 0 -5 -21
-53 -48 -107 -70 -145 -139 -334 -167 -463 -59 -263 -72 -385 -69 -618 1 -92
3 -167 4 -167 1 0 3 -16 5 -35 1 -19 5 -53 9 -75 3 -22 9 -53 11 -70 9 -56 14
-80 25 -130 17 -75 27 -116 38 -153 6 -18 12 -36 13 -40 4 -15 11 -38 24 -72
7 -19 14 -39 15 -45 10 -41 106 -256 153 -340 44 -78 171 -270 194 -293 8 -8
22 -26 31 -41 37 -56 277 -304 326 -337 14 -9 23 -20 20 -25 -3 -5 -1 -8 4 -7
5 2 41 -20 78 -49 217 -162 466 -293 704 -368 47 -15 92 -30 100 -33 17 -6 13
-5 95 -23 33 -7 65 -14 70 -15 203 -51 625 -65 820 -28 10 2 37 6 60 10 22 3
45 7 50 8 6 2 28 6 50 11 43 8 120 28 173 44 18 5 33 10 35 10 5 0 36 10 122
41 221 78 519 246 684 385 167 141 297 275 410 425 31 41 59 77 64 78 4 2 7 7
7 12 0 5 19 37 41 71 169 253 300 607 353 954 28 181 26 493 -5 695 -15 101
-15 102 -22 130 -4 14 -9 36 -12 50 -17 90 -70 255 -121 380 -38 90 -47 109
-114 235 -47 88 -158 258 -171 263 -5 2 -9 9 -9 15 0 7 -10 23 -23 37 -12 14
-42 50 -67 80 -46 56 -266 280 -275 280 -3 0 -19 12 -36 28 -18 15 -37 32 -43
37 -18 15 -71 53 -165 115 -142 94 -328 189 -476 244 -76 28 -186 63 -219 71
-88 20 -257 55 -286 58 -19 3 -35 6 -35 7 0 6 -450 21 -458 14z"/>
</g>
</svg>
