<svg width="17" height="24" viewBox="0 0 17 24" fill="none" xmlns="http://www.w3.org/2000/svg">
<path d="M8.39995 8.00009C13.0391 8.00009 16.7999 11.5818 16.7999 16C16.7999 20.4183 13.0391 24 8.39995 24C3.76079 24 -1.56561e-07 20.4183 -3.49689e-07 16C-5.42817e-07 11.5818 3.76079 8.00009 8.39995 8.00009Z" fill="url(#paint0_radial_20_867)"/>
<path d="M8.39995 4.00034C13.0391 4.00034 16.7999 7.58204 16.7999 12.0003C16.7999 16.4185 13.0391 20.0002 8.39995 20.0002C3.76079 20.0002 -1.56561e-07 16.4185 -3.49689e-07 12.0003C-5.42817e-07 7.58204 3.76079 4.00034 8.39995 4.00034Z" fill="url(#paint1_radial_20_867)"/>
<path d="M8.39995 -0.000152955C13.0391 -0.000153158 16.7999 3.58155 16.7999 7.9998C16.7999 12.4181 13.0391 15.9998 8.39995 15.9998C3.76079 15.9998 -1.56561e-07 12.4181 -3.49689e-07 7.9998C-5.42817e-07 3.58155 3.76079 -0.000152752 8.39995 -0.000152955Z" fill="url(#paint2_radial_20_867)"/>
<defs>
<radialGradient id="paint0_radial_20_867" cx="0" cy="0" r="1" gradientUnits="userSpaceOnUse" gradientTransform="translate(5.52628 22.1053) rotate(-40.6629) scale(14.8619 15.4767)">
<stop stop-color="#FF5555"/>
<stop offset="1" stop-color="#FFDE31"/>
</radialGradient>
<radialGradient id="paint1_radial_20_867" cx="0" cy="0" r="1" gradientUnits="userSpaceOnUse" gradientTransform="translate(1.95999 -3.99962) rotate(63.0922) scale(21.6547 22.7997)">
<stop stop-color="#FF5555"/>
<stop offset="1" stop-color="#FFDE31"/>
</radialGradient>
<radialGradient id="paint2_radial_20_867" cx="0" cy="0" r="1" gradientUnits="userSpaceOnUse" gradientTransform="translate(5.52628 14.105) rotate(-40.6629) scale(14.8619 15.4767)">
<stop stop-color="#FF5555"/>
<stop offset="1" stop-color="#FFDE31"/>
</radialGradient>
</defs>
</svg>
